<?xml version="1.0" standalone="no"?>
<!DOCTYPE svg PUBLIC "-//W3C//DTD SVG 20010904//EN"
 "http://www.w3.org/TR/2001/REC-SVG-20010904/DTD/svg10.dtd">
<svg version="1.0" xmlns="http://www.w3.org/2000/svg"
 width="100.000000pt" height="100.000000pt" viewBox="0 0 100.000000 100.000000"
 preserveAspectRatio="xMidYMid meet">

<g transform="translate(0.000000,100.000000) scale(0.100000,-0.100000)"
fill="#000000" stroke="none">
<path d="M212 988 c-7 -7 -12 -25 -12 -40 0 -28 0 -28 -68 -28 -40 0 -73 -5
-80 -12 -17 -17 -17 -839 0 -856 17 -17 879 -17 896 0 17 17 17 839 0 856 -7
7 -40 12 -80 12 -68 0 -68 0 -68 28 0 37 -17 52 -60 52 -43 0 -60 -15 -60 -52
l0 -28 -180 0 -180 0 0 28 c0 15 -5 33 -12 40 -16 16 -80 16 -96 0z m68 -88
c0 -53 -2 -60 -20 -60 -18 0 -20 7 -20 60 0 53 2 60 20 60 18 0 20 -7 20 -60z
m480 0 c0 -53 -2 -60 -20 -60 -18 0 -20 7 -20 60 0 53 2 60 20 60 18 0 20 -7
20 -60z m-560 -48 c0 -37 17 -52 60 -52 43 0 60 15 60 52 l0 28 180 0 180 0 0
-28 c0 -37 17 -52 60 -52 43 0 60 15 60 52 0 28 1 28 60 28 l60 0 0 -70 0 -70
-420 0 -420 0 0 70 0 70 60 0 c59 0 60 0 60 -28z m720 -462 l0 -310 -420 0
-420 0 0 310 0 310 420 0 420 0 0 -310z"/>
<path d="M426 531 c-38 -39 -65 -74 -62 -80 5 -7 53 -11 136 -11 83 0 131 4
136 11 6 10 -121 149 -136 149 -3 0 -36 -31 -74 -69z m114 -16 l34 -35 -74 0
-74 0 34 35 c19 19 37 35 40 35 3 0 21 -16 40 -35z"/>
<path d="M364 349 c-4 -6 24 -42 65 -83 l71 -71 71 71 c41 41 69 77 65 83 -5
7 -52 11 -136 11 -84 0 -131 -4 -136 -11z m173 -66 l-37 -38 -37 38 -38 37 75
0 75 0 -38 -37z"/>
</g>
</svg>
