<?xml version="1.0" encoding="UTF-8"?>
<!DOCTYPE svg PUBLIC "-//W3C//DTD SVG 1.1//EN" "http://www.w3.org/Graphics/SVG/1.1/DTD/svg11.dtd">
<svg xmlns="http://www.w3.org/2000/svg" version="1.1" width="100px" height="100px" style="shape-rendering:geometricPrecision; text-rendering:geometricPrecision; image-rendering:optimizeQuality; fill-rule:evenodd; clip-rule:evenodd" xmlns:xlink="http://www.w3.org/1999/xlink">
<g><path style="opacity:0.906" fill="#000000" d="M 55.5,7.5 C 67.5,7.5 79.5,7.5 91.5,7.5C 91.5,19.5 91.5,31.5 91.5,43.5C 88.8333,43.5 86.1667,43.5 83.5,43.5C 83.6663,36.4921 83.4996,29.4921 83,22.5C 76.3333,29.1667 69.6667,35.8333 63,42.5C 63.9838,46.1653 65.3172,49.832 67,53.5C 69.1667,80.6667 56.6667,93.1667 29.5,91C 12.1556,84.4911 4.98895,71.9911 8,53.5C 14.5089,36.1556 27.0089,28.9889 45.5,32C 49.168,33.6828 52.8347,35.0162 56.5,36C 63.1667,29.3333 69.8333,22.6667 76.5,16C 69.5079,15.5004 62.5079,15.3337 55.5,15.5C 55.5,12.8333 55.5,10.1667 55.5,7.5 Z M 31.5,40.5 C 50.981,39.1471 59.8144,48.1471 58,67.5C 51.7123,81.8251 41.2123,85.9918 26.5,80C 16.2424,72.2712 13.7424,62.4379 19,50.5C 22.1908,45.8366 26.3575,42.5032 31.5,40.5 Z"/></g>
</svg>
