<?xml version="1.0" standalone="no"?>
<!DOCTYPE svg PUBLIC "-//W3C//DTD SVG 20010904//EN"
 "http://www.w3.org/TR/2001/REC-SVG-20010904/DTD/svg10.dtd">
<svg version="1.0" xmlns="http://www.w3.org/2000/svg"
 width="64.000000pt" height="64.000000pt" viewBox="0 0 64.000000 64.000000"
 preserveAspectRatio="xMidYMid meet">

<g transform="translate(0.000000,64.000000) scale(0.100000,-0.100000)"
fill="#000000" stroke="none">
<path d="M120 525 c0 -88 1 -95 20 -95 22 0 27 15 8 23 -10 4 -9 8 2 16 13 10
13 12 0 21 -13 9 -13 11 0 20 13 9 13 11 0 20 -13 9 -13 11 0 21 11 8 12 12 3
16 -21 8 -15 33 7 33 20 0 20 -7 20 -270 0 -173 4 -270 10 -270 6 0 10 100 10
280 l0 280 -40 0 -40 0 0 -95z"/>
<path d="M300 500 c0 -28 2 -30 41 -30 38 0 40 -1 37 -27 -4 -36 -46 -46 -55
-14 -3 12 -10 21 -15 21 -6 0 -8 -9 -5 -20 4 -14 0 -20 -12 -20 -10 0 -28 -11
-40 -24 -19 -20 -22 -33 -19 -87 3 -55 6 -65 26 -74 20 -9 22 -17 22 -75 -1
-88 -19 -110 -89 -110 -37 0 -51 4 -51 14 0 8 6 17 13 19 9 4 8 8 -3 16 -13
10 -13 12 0 21 13 9 13 11 0 20 -13 9 -13 11 0 20 13 9 13 11 0 20 -13 9 -13
11 0 20 13 9 13 11 0 20 -13 9 -13 11 0 20 13 9 13 11 0 20 -13 9 -13 11 0 20
13 9 13 11 0 20 -13 9 -13 11 0 20 13 9 13 11 0 20 -13 9 -13 11 0 20 13 9 13
11 0 21 -11 8 -12 12 -2 16 19 8 14 23 -8 23 -19 0 -20 -7 -20 -185 l0 -185
-50 0 c-27 0 -50 -4 -50 -10 0 -6 78 -10 215 -10 204 0 215 1 215 19 0 10 -7
24 -15 31 -10 9 -15 32 -15 76 0 36 -4 64 -10 64 -6 0 -10 -28 -10 -65 0 -58
-2 -65 -20 -65 -18 0 -20 7 -20 60 0 33 -4 60 -10 60 -6 0 -10 -27 -10 -60 0
-53 -2 -60 -20 -60 -18 0 -20 7 -20 76 l0 77 75 -5 c45 -3 78 -1 85 6 5 5 10
38 10 71 0 51 -4 65 -23 83 -13 12 -30 22 -38 22 -11 0 -13 11 -11 43 5 54
-15 77 -64 77 -31 0 -34 -2 -34 -30z m75 0 c4 -6 -7 -10 -24 -10 -17 0 -31 5
-31 10 0 6 11 10 24 10 14 0 28 -4 31 -10z m-52 -130 c3 -12 14 -20 27 -20 13
0 24 8 27 20 6 24 35 26 57 4 21 -21 22 -94 1 -94 -10 0 -15 11 -15 35 0 19
-4 35 -10 35 -5 0 -10 -22 -10 -50 l0 -50 -50 0 -50 0 0 50 c0 28 -4 50 -10
50 -5 0 -10 -16 -10 -35 0 -24 -5 -35 -15 -35 -21 0 -20 73 1 94 22 22 51 20
57 -4z m37 10 c0 -5 -4 -10 -10 -10 -5 0 -10 5 -10 10 0 6 5 10 10 10 6 0 10
-4 10 -10z m-80 -130 c0 -5 -4 -10 -9 -10 -6 0 -13 5 -16 10 -3 6 1 10 9 10 9
0 16 -4 16 -10z m165 0 c-3 -5 -10 -10 -16 -10 -5 0 -9 5 -9 10 0 6 7 10 16
10 8 0 12 -4 9 -10z m-105 -200 c0 -5 -16 -10 -36 -10 -21 0 -33 4 -29 10 3 6
19 10 36 10 16 0 29 -4 29 -10z m85 0 c4 -6 -8 -10 -29 -10 -20 0 -36 5 -36
10 0 6 13 10 29 10 17 0 33 -4 36 -10z"/>
<path d="M509 513 c-11 -13 -11 -17 -1 -20 9 -4 12 -52 12 -198 0 -146 -3
-194 -12 -198 -10 -3 -8 -10 5 -23 16 -18 18 -18 35 0 12 13 14 20 5 23 -10 4
-13 52 -13 198 0 146 3 194 13 198 9 3 9 7 -2 20 -7 10 -17 17 -21 17 -4 0
-14 -7 -21 -17z"/>
<path d="M470 30 c0 -6 32 -10 75 -10 43 0 75 4 75 10 0 6 -32 10 -75 10 -43
0 -75 -4 -75 -10z"/>
</g>
</svg>
