<svg width="36" height="36" viewBox="0 0 36 36" fill="none" xmlns="http://www.w3.org/2000/svg">
<path d="M26.7731 25.7171L21.6087 20.5447C22.6268 19.3226 23.2392 17.7609 23.2392 16.0553C23.2392 12.164 20.0483 9 16.1233 9C12.1983 9 9 12.1677 9 16.059C9 19.9503 12.1909 23.1142 16.1159 23.1142C17.7833 23.1142 19.3179 22.542 20.5352 21.5858L25.7181 26.7729C26.0206 27.0757 26.4706 27.0757 26.7731 26.7729C27.0756 26.4702 27.0756 26.0198 26.7731 25.7171ZM10.5125 16.059C10.5125 13.0021 13.0283 10.5174 16.1159 10.5174C19.2035 10.5174 21.7193 13.0021 21.7193 16.059C21.7193 19.1159 19.2035 21.6006 16.1159 21.6006C13.0283 21.6006 10.5125 19.1122 10.5125 16.059Z" fill="#6D6E71"/>
</svg>
