<?xml version="1.0" standalone="no"?>
<!DOCTYPE svg PUBLIC "-//W3C//DTD SVG 20010904//EN"
 "http://www.w3.org/TR/2001/REC-SVG-20010904/DTD/svg10.dtd">
<svg version="1.0" xmlns="http://www.w3.org/2000/svg"
 width="24.000000pt" height="24.000000pt" viewBox="0 0 24.000000 24.000000"
 preserveAspectRatio="xMidYMid meet">

<g transform="translate(0.000000,24.000000) scale(0.100000,-0.100000)"
fill="#000000" stroke="none">
<path d="M135 210 c3 -5 16 -10 27 -10 l21 0 -22 -24 c-18 -20 -29 -23 -61
-19 -29 4 -42 1 -59 -16 -28 -28 -27 -72 2 -99 51 -48 124 -11 114 58 -4 32
-1 43 19 61 l24 22 0 -21 c0 -11 5 -24 10 -27 6 -4 10 12 10 39 l0 46 -46 0
c-27 0 -43 -4 -39 -10z m-7 -82 c15 -15 15 -61 0 -76 -17 -17 -54 -15 -72 4
-19 18 -21 55 -4 72 7 7 24 12 38 12 14 0 31 -5 38 -12z"/>
</g>
</svg>
