<svg width="36" height="36" viewBox="0 0 36 36" fill="none" xmlns="http://www.w3.org/2000/svg">
<path d="M17.3673 23.0961C17.2472 23.0453 17.1382 22.9709 17.0466 22.8772L12.1181 17.8772C11.9325 17.6889 11.8282 17.4335 11.8282 17.1672C11.8282 16.9009 11.9325 16.6455 12.1181 16.4572C12.3037 16.2689 12.5555 16.1631 12.818 16.1631C13.0805 16.1631 13.3322 16.2689 13.5178 16.4572L17.7464 20.7572L21.975 16.4572C22.1606 16.2689 22.4124 16.1631 22.6749 16.1631C22.9374 16.1631 23.1891 16.2689 23.3747 16.4572C23.5603 16.6455 23.6646 16.9009 23.6646 17.1672C23.6646 17.4335 23.5603 17.6889 23.3747 17.8772L18.4463 22.8772C18.3546 22.9709 18.2456 23.0453 18.1255 23.0961C18.0054 23.1468 17.8765 23.173 17.7464 23.173C17.6163 23.173 17.4875 23.1468 17.3673 23.0961Z" fill="#6D6E71"/>
</svg>
