<?xml version="1.0" encoding="UTF-8"?>
<!DOCTYPE svg PUBLIC "-//W3C//DTD SVG 1.1//EN" "http://www.w3.org/Graphics/SVG/1.1/DTD/svg11.dtd">
<svg xmlns="http://www.w3.org/2000/svg" version="1.1" width="100px" height="100px" style="shape-rendering:geometricPrecision; text-rendering:geometricPrecision; image-rendering:optimizeQuality; fill-rule:evenodd; clip-rule:evenodd" xmlns:xlink="http://www.w3.org/1999/xlink">
<g><path style="opacity:0.908" fill="#000000" d="M 41.5,1.5 C 68.645,-0.188799 81.145,12.4779 79,39.5C 75.2684,52.4005 66.7684,59.7338 53.5,61.5C 53.5,64.8333 53.5,68.1667 53.5,71.5C 58.1667,71.5 62.8333,71.5 67.5,71.5C 67.5,74.1667 67.5,76.8333 67.5,79.5C 62.8333,79.5 58.1667,79.5 53.5,79.5C 53.5,84.1667 53.5,88.8333 53.5,93.5C 50.8333,93.5 48.1667,93.5 45.5,93.5C 45.5,88.8333 45.5,84.1667 45.5,79.5C 40.8333,79.5 36.1667,79.5 31.5,79.5C 31.5,76.8333 31.5,74.1667 31.5,71.5C 36.1667,71.5 40.8333,71.5 45.5,71.5C 45.5,68.1667 45.5,64.8333 45.5,61.5C 25.3907,56.8544 16.8907,44.1877 20,23.5C 23.3501,12.3177 30.5167,4.98437 41.5,1.5 Z M 43.5,10.5 C 62.981,9.14709 71.8144,18.1471 70,37.5C 63.7123,51.8251 53.2123,55.9918 38.5,50C 28.2424,42.2712 25.7424,32.4379 31,20.5C 34.1908,15.8366 38.3575,12.5032 43.5,10.5 Z"/></g>
</svg>
