<svg id="Group_876" data-name="Group 876" xmlns="http://www.w3.org/2000/svg" xmlns:xlink="http://www.w3.org/1999/xlink" width="286.874" height="73.088" viewBox="0 0 286.874 73.088">
  <defs>
    <linearGradient id="linear-gradient" x1="0.842" y1="-0.028" x2="0.552" y2="0.917" gradientUnits="objectBoundingBox">
      <stop offset="0" stop-color="#b3fc93"/>
      <stop offset="1" stop-color="#009132"/>
    </linearGradient>
    <linearGradient id="linear-gradient-2" x1="0.141" y1="0.421" x2="0.734" y2="0.478" gradientUnits="objectBoundingBox">
      <stop offset="0" stop-color="#6cbbff"/>
      <stop offset="1" stop-color="#0044c9"/>
    </linearGradient>
    <linearGradient id="linear-gradient-3" x1="0.179" y1="0.64" x2="0.866" y2="0.386" gradientUnits="objectBoundingBox">
      <stop offset="0" stop-color="#0044c9"/>
      <stop offset="1" stop-color="#6cbbff"/>
    </linearGradient>
    <clipPath id="clip-path">
      <path id="Path_2676" data-name="Path 2676" d="M17.378,0A18.857,18.857,0,0,0,5.23,4.66C1.18,8.2-3.709,19.284,4.3,33.254c6.466,11.274,18.229,16,18.229,16-6.743-13.612-8.254-21.75-5.408-30.971,2.6-8.418,12.441-12.273,12.441-12.273A14.752,14.752,0,0,0,17.5,0Z" transform="translate(0 -0.001)" fill="url(#linear-gradient)"/>
    </clipPath>
    <clipPath id="clip-path-2">
      <path id="Path_2677" data-name="Path 2677" d="M55.616,19.064a97.452,97.452,0,0,1-15.587,11.7c-5.459,3.52-8.406,11.112-7.2,17.338.786,4.048,5.091,12.518,5.091,12.518s-1.7-9.966,3.93-13.169c6.048-3.44,13.887-8.843,17.152-16.008,7.295-16.007.48-22.578.48-22.578s2.6,4.471-3.871,10.195" transform="translate(-32.564 -8.869)" fill="url(#linear-gradient-2)"/>
    </clipPath>
    <clipPath id="clip-path-3">
      <rect id="Rectangle_493" data-name="Rectangle 493" width="286.874" height="73.088" fill="none"/>
    </clipPath>
    <clipPath id="clip-path-4">
      <path id="Path_2679" data-name="Path 2679" d="M37.886,7.483h0c-.019.007-9.843,3.863-12.44,12.273-.15.487-.282.971-.408,1.453C38.674,7.373,53.7,14.952,46.779,23.134c.777-.667,5.413-4.73,6.336-5.547,5.819-5.15,4.3-9.284,3.938-10.061-1.889-2.327-4.66-3.1-7.512-3.1-5.67,0-11.656,3.059-11.656,3.059" transform="translate(-25.037 -4.424)" fill="url(#linear-gradient-3)"/>
    </clipPath>
  </defs>
  <g id="Group_867" data-name="Group 867" transform="translate(0 0.001)">
    <g id="Group_866" data-name="Group 866" clip-path="url(#clip-path)">
      <rect id="Rectangle_491" data-name="Rectangle 491" width="43.363" height="55.405" transform="translate(-14.354 2.419) rotate(-12.804)" fill="url(#linear-gradient)"/>
    </g>
  </g>
  <g id="Group_869" data-name="Group 869" transform="translate(21.741 5.921)">
    <g id="Group_868" data-name="Group 868" clip-path="url(#clip-path-2)">
      <rect id="Rectangle_492" data-name="Rectangle 492" width="61.209" height="52.198" transform="matrix(0.392, -0.92, 0.92, 0.392, -19.612, 43.795)" fill="url(#linear-gradient-2)"/>
    </g>
  </g>
  <g id="Group_871" data-name="Group 871">
    <g id="Group_870" data-name="Group 870" clip-path="url(#clip-path-3)">
      <path id="Path_2678" data-name="Path 2678" d="M47.134,97.783a7.01,7.01,0,1,1-4.316-8.925,7.01,7.01,0,0,1,4.316,8.925" transform="translate(-11.134 -29.402)" fill="#6cbbfc"/>
    </g>
  </g>
  <g id="Group_873" data-name="Group 873" transform="translate(16.716 2.954)">
    <g id="Group_872" data-name="Group 872" clip-path="url(#clip-path-4)">
      <rect id="Rectangle_494" data-name="Rectangle 494" width="33.896" height="18.711" transform="translate(0 -0.001)" fill="url(#linear-gradient-3)"/>
    </g>
  </g>
  <g id="Group_875" data-name="Group 875">
    <g id="Group_874" data-name="Group 874" clip-path="url(#clip-path-3)">
      <path id="Path_2680" data-name="Path 2680" d="M341.637,36.568v.525a13.408,13.408,0,0,0-6.59-1.726,13.672,13.672,0,0,0,0,27.343,13.407,13.407,0,0,0,6.59-1.725v.581a.781.781,0,0,0,.781.781h5.468a.781.781,0,0,0,.781-.781v-25a.781.781,0,0,0-.781-.781h-5.468a.781.781,0,0,0-.781.781m-6.59,19.112a6.642,6.642,0,1,1,6.542-6.641,6.6,6.6,0,0,1-6.542,6.641" transform="translate(-106.844 -11.755)"/>
      <path id="Path_2681" data-name="Path 2681" d="M114.62,56.905h-3.11a.781.781,0,0,1-.674-.386L93.091,26.249V56a.781.781,0,0,1-.781.781H89.966A.781.781,0,0,1,89.185,56V19.682a.781.781,0,0,1,.781-.781h2.9a.781.781,0,0,1,.674.387L111.5,49.92V19.745a.781.781,0,0,1,.781-.782h2.343a.781.781,0,0,1,.781.782V56.124a.781.781,0,0,1-.781.781" transform="translate(-29.641 -6.282)" fill="#393939"/>
      <path id="Path_2682" data-name="Path 2682" d="M145.574,62.548c-.177,0-.355,0-.536-.007a12.5,12.5,0,0,1-8.45-4.017,13.6,13.6,0,0,1-3.925-9.454,13.951,13.951,0,0,1,3.626-9.465,11.882,11.882,0,0,1,8.8-4.007,11.68,11.68,0,0,1,8.69,3.9,13.782,13.782,0,0,1,3.514,9.352v1.172a.781.781,0,0,1-.781.781H136.736c.861,4.425,4.884,7.744,8.4,7.834,3.355.091,5.469-.772,8.032-3.358a.778.778,0,0,1,1.083-.017l1.713,1.6a.781.781,0,0,1,.025,1.119c-3.215,3.25-6.229,4.568-10.417,4.568M136.8,46.9h16.411c-.776-4.273-4.067-7.393-8.124-7.393-3.955,0-7.384,3.213-8.287,7.393" transform="translate(-44.091 -11.831)" fill="#393939"/>
      <path id="Path_2683" data-name="Path 2683" d="M210,62.6h2.343a.781.781,0,0,0,.781-.781v-25a.781.781,0,0,0-.781-.781H210a.781.781,0,0,0-.781.781v25A.781.781,0,0,0,210,62.6" transform="translate(-69.536 -11.979)" fill="#393939"/>
      <path id="Path_2684" data-name="Path 2684" d="M209.221,26.118v2.539a.781.781,0,0,0,.781.781h2.343a.781.781,0,0,0,.781-.781V26.118a.781.781,0,0,0-.781-.781H210a.781.781,0,0,0-.781.781" transform="translate(-69.536 -8.421)" fill="#393939"/>
      <path id="Path_2685" data-name="Path 2685" d="M250.385,35.575a10.5,10.5,0,0,0-8.691,4.713A10.5,10.5,0,0,0,233,35.575a10.316,10.316,0,0,0-6.714,2.5v-1.4a.781.781,0,0,0-.781-.781h-2.343a.781.781,0,0,0-.781.781V61.6a.78.78,0,0,0,.781.781h2.343a.781.781,0,0,0,.781-.781V46.629a6.727,6.727,0,1,1,13.427,0V61.6a.781.781,0,0,0,.781.781h2.391a.781.781,0,0,0,.781-.781V46.629a6.727,6.727,0,1,1,13.428,0V61.6a.78.78,0,0,0,.781.781h2.343A.781.781,0,0,0,261,61.6V46.629a10.856,10.856,0,0,0-10.62-11.054" transform="translate(-73.911 -11.824)" fill="#393939"/>
      <path id="Path_2686" data-name="Path 2686" d="M415.888,25.015a11.332,11.332,0,0,0-7.908-6.168,15.938,15.938,0,0,0-10.145,1.081,22.053,22.053,0,0,0-6.126,4.786.78.78,0,0,0,.065,1.126l4.161,3.547a.78.78,0,0,0,1.076-.059,14.028,14.028,0,0,1,3.708-2.989c3.594-1.618,7.625-.86,8.8,1.654.579,1.237,1.33,4.531-4.165,8.406l-4.22,2.9a.783.783,0,0,0-.338.644V47.6h7.03V43.232l1.528-1.05.031-.022a18.486,18.486,0,0,0,6.583-7.549,11.358,11.358,0,0,0-.081-9.6" transform="translate(-130.117 -6.134)"/>
      <path id="Path_2687" data-name="Path 2687" d="M406.205,72.728h5.468a.781.781,0,0,0,.781-.781V67.291a.781.781,0,0,0-.781-.781h-5.468a.781.781,0,0,0-.781.781v4.655a.781.781,0,0,0,.781.781" transform="translate(-134.746 -22.105)"/>
      <path id="Path_2688" data-name="Path 2688" d="M297.814,56.254l12.1-36.324a.782.782,0,0,0-.742-1.028h-5.764a.782.782,0,0,0-.741.535l-8.653,25.978L285.42,19.437a.781.781,0,0,0-.741-.536h-5.76a.781.781,0,0,0-.742,1.027L290.2,56.252a.78.78,0,0,0,.742.535h6.136a.781.781,0,0,0,.741-.534" transform="translate(-92.441 -6.282)"/>
      <path id="Path_2689" data-name="Path 2689" d="M187.416,36.4l-6.265,18.973L174.826,36.4a.782.782,0,0,0-.741-.534h-2.471a.781.781,0,0,0-.741,1.028L179.1,61.582l-3.874,11.731a.781.781,0,0,0,.742,1.026h2.468a.782.782,0,0,0,.742-.536l12.187-36.91a.781.781,0,0,0-.742-1.026h-2.468a.781.781,0,0,0-.742.536" transform="translate(-56.777 -11.921)" fill="#393939"/>
      <path id="Path_2690" data-name="Path 2690" d="M383.33,36.161a.733.733,0,0,0-.732-.733h-.012a13.576,13.576,0,0,0-6.64,1.727v-.536a.78.78,0,0,0-.781-.781H369.7a.781.781,0,0,0-.781.781v25a.781.781,0,0,0,.781.781h5.468a.781.781,0,0,0,.781-.781V49.1a6.64,6.64,0,0,1,6.64-6.64.744.744,0,0,0,.744-.744Z" transform="translate(-122.612 -11.775)"/>
    </g>
  </g>
</svg>
