<?xml version="1.0" encoding="UTF-8"?>
<!DOCTYPE svg PUBLIC "-//W3C//DTD SVG 1.1//EN" "http://www.w3.org/Graphics/SVG/1.1/DTD/svg11.dtd">
<svg xmlns="http://www.w3.org/2000/svg" version="1.1" width="100px" height="100px" style="shape-rendering:geometricPrecision; text-rendering:geometricPrecision; image-rendering:optimizeQuality; fill-rule:evenodd; clip-rule:evenodd" xmlns:xlink="http://www.w3.org/1999/xlink">
<g><path style="opacity:0.867" fill="#000000" d="M 15.5,3.5 C 39.7414,3.17234 63.9081,3.50567 88,4.5C 89.5767,21.9659 85.5767,37.9659 76,52.5C 72.4482,55.7191 68.6149,58.5524 64.5,61C 73.3333,69.8333 82.1667,78.6667 91,87.5C 91.6172,88.4491 91.4506,89.2825 90.5,90C 89.1667,90.6667 87.8333,90.6667 86.5,90C 59,62.5 31.5,35 4,7.5C 3.38277,6.55085 3.54943,5.71752 4.5,5C 5.83333,4.33333 7.16667,4.33333 8.5,5C 10.3333,6.83333 12.1667,8.66667 14,10.5C 14.4396,8.13412 14.9396,5.80079 15.5,3.5 Z M 19.5,7.5 C 40.5,7.5 61.5,7.5 82.5,7.5C 82.5,12.1667 82.5,16.8333 82.5,21.5C 63.1638,21.6666 43.8305,21.5 24.5,21C 20.633,17.3967 18.9663,12.8967 19.5,7.5 Z M 29.5,26.5 C 46.6586,25.5033 63.992,25.17 81.5,25.5C 80.1504,39.5505 73.317,49.8839 61,56.5C 50.3401,46.6736 39.8401,36.6736 29.5,26.5 Z"/></g>
<g><path style="opacity:0.809" fill="#000000" d="M 16.5,24.5 C 18.4628,25.9599 20.2962,27.6266 22,29.5C 24.1282,40.2741 29.6282,48.7741 38.5,55C 42.2815,56.8271 46.2815,57.8271 50.5,58C 53.3497,60.6824 56.0164,63.5157 58.5,66.5C 57.0672,71.2333 57.2338,75.9 59,80.5C 64.7863,83.6429 70.6197,86.6429 76.5,89.5C 78.4011,90.935 78.7345,92.6017 77.5,94.5C 60.2691,95.8243 43.1025,95.8243 26,94.5C 25.1751,92.2992 25.6751,90.4659 27.5,89C 33.0784,86.2943 38.5784,83.461 44,80.5C 45.5452,75.9534 45.8785,71.2867 45,66.5C 44.5348,65.0692 43.7014,63.9025 42.5,63C 26.5234,55.2424 17.8567,42.4091 16.5,24.5 Z M 49.5,63.5 C 50.8333,63.5 52.1667,63.5 53.5,63.5C 53.3338,69.8421 53.5005,76.1754 54,82.5C 58.1257,86.4817 62.9591,89.315 68.5,91C 57.1667,91.6667 45.8333,91.6667 34.5,91C 49.551,87.4019 54.551,78.2353 49.5,63.5 Z"/></g>
</svg>
