<?xml version="1.0" standalone="no"?>
<!DOCTYPE svg PUBLIC "-//W3C//DTD SVG 20010904//EN"
 "http://www.w3.org/TR/2001/REC-SVG-20010904/DTD/svg10.dtd">
<svg version="1.0" xmlns="http://www.w3.org/2000/svg"
 width="100.000000pt" height="100.000000pt" viewBox="0 0 100.000000 100.000000"
 preserveAspectRatio="xMidYMid meet">

<g transform="translate(0.000000,100.000000) scale(0.100000,-0.100000)"
fill="#000000" stroke="none">
<path d="M550 888 c-58 -96 -24 -192 78 -216 20 -5 64 -15 97 -23 52 -12 63
-19 84 -51 43 -67 72 -37 31 30 -24 39 -61 56 -154 73 -118 20 -151 71 -106
160 32 61 5 85 -30 27z"/>
<path d="M685 890 c-10 -17 3 -27 43 -33 51 -9 70 -25 86 -72 11 -31 20 -41
43 -46 72 -15 95 -51 74 -120 -19 -64 9 -84 35 -24 33 80 7 146 -68 173 -37
13 -49 22 -53 43 -7 31 -39 64 -78 78 -36 14 -74 14 -82 1z"/>
<path d="M164 809 c-4 -7 145 -163 364 -382 296 -296 374 -369 384 -359 10 10
-12 37 -107 132 l-119 119 154 3 155 3 0 95 0 95 -255 3 -256 2 -149 150 c-82
83 -153 150 -157 150 -4 0 -10 -5 -14 -11z m596 -389 l0 -60 -58 0 c-57 0 -58
0 -117 60 l-59 60 117 0 117 0 0 -60z m100 0 l0 -60 -30 0 -30 0 0 60 0 60 30
0 30 0 0 -60z m100 0 l0 -60 -30 0 -30 0 0 60 0 60 30 0 30 0 0 -60z"/>
<path d="M4 507 c-3 -8 -4 -52 -2 -98 l3 -84 279 -3 279 -2 -18 20 c-17 19
-30 20 -262 20 l-243 0 0 60 0 60 182 0 c180 0 181 0 163 20 -17 19 -31 20
-197 20 -140 0 -180 -3 -184 -13z"/>
</g>
</svg>
