<?xml version="1.0" standalone="no"?>
<!DOCTYPE svg PUBLIC "-//W3C//DTD SVG 20010904//EN"
 "http://www.w3.org/TR/2001/REC-SVG-20010904/DTD/svg10.dtd">
<svg version="1.0" xmlns="http://www.w3.org/2000/svg"
 width="100.000000pt" height="100.000000pt" viewBox="0 0 100.000000 100.000000"
 preserveAspectRatio="xMidYMid meet">

<g transform="translate(0.000000,100.000000) scale(0.100000,-0.100000)"
fill="#000000" stroke="none">
<path d="M340 959 c-80 -32 -119 -120 -95 -212 15 -57 12 -74 -15 -82 -10 -3
-38 -28 -63 -54 -80 -85 -75 -153 15 -201 l48 -25 2 -175 c3 -148 5 -175 18
-175 12 0 16 22 20 115 l5 115 29 -67 28 -68 117 0 c123 0 141 6 141 45 0 35
-20 45 -90 45 l-66 0 -17 73 c-10 39 -17 75 -17 79 0 3 14 9 30 13 17 4 36 15
42 25 11 17 14 15 40 -17 30 -38 36 -71 16 -77 -7 -3 -25 -7 -40 -10 -16 -4
-28 -13 -28 -22 0 -13 7 -15 35 -10 46 9 109 -25 126 -67 11 -26 10 -39 -10
-91 -28 -78 -28 -78 -14 -83 17 -6 63 101 63 147 0 42 -27 83 -69 104 -23 12
-27 20 -23 48 3 28 -6 45 -62 116 -36 46 -66 90 -66 97 0 8 18 19 40 25 53 14
76 53 86 139 12 103 7 140 -21 182 -43 66 -134 96 -205 68z m139 -47 c37 -28
61 -64 64 -97 l2 -30 -62 -3 c-45 -2 -63 -7 -63 -17 0 -7 5 -15 11 -17 8 -3 6
-15 -6 -38 -9 -18 -20 -59 -22 -90 -5 -48 -1 -67 21 -115 30 -67 32 -81 10
-89 -25 -10 -156 -7 -196 4 -43 12 -98 55 -98 76 0 26 39 93 66 111 80 56 86
64 79 102 -4 20 -8 62 -9 93 -1 47 3 61 24 83 51 56 126 67 179 27z m56 -209
c-3 -27 -13 -58 -21 -71 -14 -21 -51 -42 -76 -42 -15 0 -2 74 22 121 17 33 25
39 51 39 l31 0 -7 -47z m-198 -329 c27 -5 32 -12 42 -58 6 -29 16 -69 22 -89
l10 -36 71 -3 c46 -2 73 -7 76 -15 3 -10 -22 -13 -100 -13 l-105 0 -41 96
c-23 52 -42 102 -42 110 0 15 20 18 67 8z"/>
<path d="M480 674 c0 -8 5 -12 10 -9 6 3 10 10 10 16 0 5 -4 9 -10 9 -5 0 -10
-7 -10 -16z"/>
<path d="M796 481 c-4 -5 -2 -12 4 -16 5 -3 10 -17 10 -30 0 -26 28 -42 36
-20 7 16 -16 67 -33 72 -6 2 -14 0 -17 -6z"/>
<path d="M636 455 c-22 -22 -20 -39 10 -91 l26 -44 51 27 c28 16 55 36 61 46
16 26 -5 51 -50 59 -21 3 -48 9 -60 13 -14 4 -27 1 -38 -10z m84 -45 c8 5 21
10 28 10 23 0 12 -18 -25 -40 -38 -22 -38 -22 -64 23 -16 29 0 41 25 18 15
-14 26 -17 36 -11z"/>
</g>
</svg>
