<?xml version="1.0" standalone="no"?>
<!DOCTYPE svg PUBLIC "-//W3C//DTD SVG 20010904//EN"
 "http://www.w3.org/TR/2001/REC-SVG-20010904/DTD/svg10.dtd">
<svg version="1.0" xmlns="http://www.w3.org/2000/svg"
 width="100.000000pt" height="100.000000pt" viewBox="0 0 100.000000 100.000000"
 preserveAspectRatio="xMidYMid meet">

<g transform="translate(0.000000,100.000000) scale(0.100000,-0.100000)"
fill="#000000" stroke="none">
<path d="M483 981 c-3 -14 -17 -20 -57 -25 -93 -11 -147 -35 -207 -95 -90 -91
-101 -141 -88 -426 4 -94 2 -103 -24 -158 -16 -32 -26 -64 -23 -72 6 -16 136
-59 211 -70 34 -5 61 -17 84 -38 19 -16 49 -36 67 -43 17 -7 34 -22 37 -34 7
-25 27 -26 34 -1 3 11 31 38 63 60 74 52 117 101 148 171 13 30 38 69 54 86
37 39 47 94 24 129 -16 24 -16 31 0 102 32 146 1 253 -85 295 -25 12 -62 34
-81 49 -19 15 -54 33 -77 40 -25 7 -43 19 -46 30 -7 24 -27 24 -34 0z m-3
-236 l0 -174 -42 -11 c-120 -31 -178 -74 -193 -140 -11 -51 4 -137 35 -196
l29 -54 -27 6 c-53 11 -127 34 -140 42 -10 7 -9 16 3 44 32 78 37 128 24 249
-15 137 -5 208 39 279 46 75 143 127 240 129 l32 1 0 -175z m86 165 c8 0 31
-15 51 -34 21 -18 52 -37 69 -40 38 -8 58 -28 79 -79 19 -46 19 -98 -1 -195
-15 -71 -14 -79 1 -104 22 -38 12 -83 -26 -110 -16 -12 -29 -28 -29 -35 0 -20
-45 -104 -72 -134 -24 -28 -102 -89 -112 -89 -3 0 -6 103 -6 228 l0 228 31 18
c17 10 43 38 59 62 24 38 29 42 40 28 8 -8 19 -36 25 -62 7 -27 18 -47 26 -47
35 0 14 98 -32 150 -17 19 -35 35 -40 35 -5 0 -18 -20 -29 -44 -12 -23 -34
-56 -50 -71 l-30 -29 0 168 c0 149 2 167 16 162 9 -3 22 -6 30 -6z m-86 -605
l0 -226 -28 15 c-42 22 -121 111 -144 162 -42 97 -32 195 25 225 20 11 121 46
140 48 4 1 7 -100 7 -224z"/>
<path d="M584 426 c-10 -26 4 -48 28 -44 17 2 23 10 23 28 0 18 -6 26 -23 28
-13 2 -25 -3 -28 -12z"/>
<path d="M364 426 c-10 -26 4 -48 28 -44 33 4 33 52 0 56 -13 2 -25 -3 -28
-12z"/>
</g>
</svg>
