<?xml version="1.0" standalone="no"?>
<!DOCTYPE svg PUBLIC "-//W3C//DTD SVG 20010904//EN"
 "http://www.w3.org/TR/2001/REC-SVG-20010904/DTD/svg10.dtd">
<svg version="1.0" xmlns="http://www.w3.org/2000/svg"
 width="100.000000pt" height="100.000000pt" viewBox="0 0 100.000000 100.000000"
 preserveAspectRatio="xMidYMid meet">

<g transform="translate(0.000000,100.000000) scale(0.100000,-0.100000)"
fill="#000000" stroke="none">
<path d="M390 946 c-164 -44 -241 -199 -195 -391 12 -52 12 -63 -1 -82 -8 -12
-14 -34 -14 -49 0 -35 28 -92 51 -105 11 -5 19 -15 19 -20 0 -20 51 -114 78
-143 47 -50 145 -116 172 -116 30 0 132 71 175 121 15 19 39 59 53 89 14 30
38 69 54 86 37 39 47 94 24 129 -16 24 -16 31 0 102 32 146 -2 263 -87 297
-22 9 -57 29 -77 45 -66 51 -153 64 -252 37z m169 -36 c19 -5 48 -23 65 -39
17 -16 45 -32 62 -36 38 -7 58 -27 79 -78 19 -46 19 -98 -1 -195 -15 -71 -14
-79 1 -104 22 -38 12 -83 -26 -110 -16 -12 -29 -28 -29 -35 0 -20 -39 -93 -68
-128 -33 -40 -121 -105 -142 -105 -19 0 -117 70 -143 103 -24 30 -67 113 -67
130 0 7 -13 23 -30 35 -38 28 -50 84 -25 112 17 19 17 24 2 95 -21 94 -21 127
-1 194 37 126 186 200 323 161z"/>
<path d="M624 745 c-23 -36 -91 -65 -153 -65 -115 0 -196 -47 -189 -109 4 -36
30 -33 40 4 11 43 39 56 143 65 94 8 124 17 162 52 l21 20 18 -33 c10 -19 23
-56 29 -84 12 -53 37 -69 43 -27 7 49 -60 202 -88 202 -5 0 -17 -11 -26 -25z"/>
<path d="M364 446 c-10 -26 4 -48 28 -44 33 4 33 52 0 56 -13 2 -25 -3 -28
-12z"/>
<path d="M584 446 c-10 -26 4 -48 28 -44 17 2 23 10 23 28 0 18 -6 26 -23 28
-13 2 -25 -3 -28 -12z"/>
</g>
</svg>
