<?xml version="1.0" standalone="no"?>
<!DOCTYPE svg PUBLIC "-//W3C//DTD SVG 20010904//EN"
 "http://www.w3.org/TR/2001/REC-SVG-20010904/DTD/svg10.dtd">
<svg version="1.0" xmlns="http://www.w3.org/2000/svg"
 width="64.000000pt" height="64.000000pt" viewBox="0 0 64.000000 64.000000"
 preserveAspectRatio="xMidYMid meet">

<g transform="translate(0.000000,64.000000) scale(0.100000,-0.100000)"
fill="#000000" stroke="none">
<path d="M42 597 c-21 -23 -22 -30 -22 -278 0 -254 0 -256 23 -277 23 -21 30
-22 278 -22 254 0 256 0 277 23 21 23 22 30 22 278 0 254 0 256 -23 277 -23
21 -30 22 -278 22 -254 0 -256 0 -277 -23z m542 -13 c24 -23 24 -505 0 -528
-23 -24 -505 -24 -528 0 -24 23 -24 505 0 528 23 24 505 24 528 0z"/>
<path d="M70 570 c-19 -19 -20 -33 -20 -250 0 -217 1 -231 20 -250 19 -19 33
-20 250 -20 217 0 231 1 250 20 19 19 20 33 20 250 0 217 -1 231 -20 250 -11
11 -31 20 -45 20 -25 0 -25 0 -25 -95 l0 -95 -180 0 -180 0 0 95 c0 95 0 95
-25 95 -14 0 -34 -9 -45 -20z m52 -92 l3 -93 195 0 195 0 3 93 c3 93 11 109
40 80 17 -17 17 -459 0 -476 -17 -17 -459 -17 -476 0 -17 17 -17 459 0 476 29
29 37 13 40 -80z"/>
<path d="M154 567 c-3 -8 -4 -45 -2 -83 l3 -69 165 0 165 0 0 80 0 80 -163 3
c-130 2 -163 0 -168 -11z m316 -51 l0 -43 -42 21 c-59 29 -157 29 -215 0 l-43
-21 0 43 0 44 150 0 150 0 0 -44z m-41 -45 c22 -12 41 -26 41 -31 0 -6 -33
-10 -74 -10 -66 0 -77 3 -90 22 -9 12 -19 19 -22 15 -4 -4 -1 -13 6 -22 11
-13 4 -15 -54 -15 -73 0 -83 11 -34 36 77 40 155 41 227 5z"/>
<path d="M310 540 c0 -5 5 -10 10 -10 6 0 10 5 10 10 0 6 -4 10 -10 10 -5 0
-10 -4 -10 -10z"/>
<path d="M240 530 c0 -5 5 -10 10 -10 6 0 10 5 10 10 0 6 -4 10 -10 10 -5 0
-10 -4 -10 -10z"/>
<path d="M380 530 c0 -5 5 -10 10 -10 6 0 10 5 10 10 0 6 -4 10 -10 10 -5 0
-10 -4 -10 -10z"/>
<path d="M180 510 c0 -5 5 -10 10 -10 6 0 10 5 10 10 0 6 -4 10 -10 10 -5 0
-10 -4 -10 -10z"/>
<path d="M440 510 c0 -5 5 -10 10 -10 6 0 10 5 10 10 0 6 -4 10 -10 10 -5 0
-10 -4 -10 -10z"/>
</g>
</svg>
