<?xml version="1.0" standalone="no"?>
<!DOCTYPE svg PUBLIC "-//W3C//DTD SVG 20010904//EN"
 "http://www.w3.org/TR/2001/REC-SVG-20010904/DTD/svg10.dtd">
<svg version="1.0" xmlns="http://www.w3.org/2000/svg"
 width="100.000000pt" height="100.000000pt" viewBox="0 0 100.000000 100.000000"
 preserveAspectRatio="xMidYMid meet">

<g transform="translate(0.000000,100.000000) scale(0.100000,-0.100000)"
fill="#000000" stroke="none">
<path d="M261 883 c-29 -109 -44 -218 -39 -279 9 -111 86 -199 199 -231 l59
-16 0 -66 c0 -44 -5 -74 -16 -89 -19 -27 -71 -54 -146 -76 -58 -17 -85 -43
-74 -72 8 -21 504 -21 512 0 11 29 -16 55 -74 72 -75 22 -127 49 -146 76 -11
15 -16 45 -16 89 l0 66 59 16 c113 32 190 120 199 231 5 61 -10 170 -39 279
l-21 77 -218 0 -218 0 -21 -77z m443 -21 c9 -32 16 -64 16 -70 0 -9 -57 -12
-220 -12 -163 0 -220 3 -220 12 0 6 7 38 16 70 l17 58 187 0 187 0 17 -58z
m30 -153 c25 -128 -17 -228 -119 -282 -31 -17 -58 -22 -115 -22 -57 0 -84 5
-115 22 -102 54 -144 154 -119 282 l7 31 227 0 228 0 6 -31z m-193 -566 c22
-14 64 -35 92 -44 l52 -18 -185 0 c-173 0 -182 1 -140 14 25 8 65 28 90 44 25
16 46 30 48 30 1 1 21 -11 43 -26z"/>
</g>
</svg>
